<svg width="153" height="152" viewBox="0 0 153 152" fill="none" xmlns="http://www.w3.org/2000/svg">
<path fill-rule="evenodd" clip-rule="evenodd" d="M0.759277 76.0631C0.759277 56.0006 8.72905 36.7599 22.9153 22.5736C37.1016 8.38732 56.3424 0.417542 76.4048 0.417542C96.4673 0.417542 115.708 8.38732 129.894 22.5736C144.081 36.7599 152.05 56.0006 152.05 76.0631C152.05 96.1255 144.081 115.366 129.894 129.553C115.708 143.739 96.4673 151.709 76.4048 151.709C56.3424 151.709 37.1016 143.739 22.9153 129.553C8.72905 115.366 0.759277 96.1255 0.759277 76.0631ZM84.5097 30.1354C84.5097 27.9859 83.6558 25.9244 82.1358 24.4044C80.6159 22.8845 78.5544 22.0306 76.4048 22.0306C74.2553 22.0306 72.1938 22.8845 70.6738 24.4044C69.1538 25.9244 68.2999 27.9859 68.2999 30.1354V76.0631C68.2999 80.537 71.9309 84.168 76.4048 84.168H111.526C113.676 84.168 115.737 83.3141 117.257 81.7941C118.777 80.2741 119.631 78.2126 119.631 76.0631C119.631 73.9135 118.777 71.852 117.257 70.3321C115.737 68.8121 113.676 67.9582 111.526 67.9582H84.5097V30.1354Z" fill="#409600"/>
</svg>
