<svg width="161" height="160" viewBox="0 0 161 160" fill="none" xmlns="http://www.w3.org/2000/svg">
<path d="M131.732 17.1137C137.007 22.8732 142.28 28.6326 147.555 34.3921C160.174 48.1742 164.624 69.1447 157.595 92.1196C145.64 131.205 104.999 161.294 66.8162 159.328C51.0787 158.519 38.2165 152.388 29.3701 142.725L13.5469 125.445C22.3951 135.108 35.259 141.239 50.9948 142.05C89.179 144.016 129.817 113.924 141.773 74.8412C148.801 51.8646 144.351 30.8941 131.732 17.1137Z" fill="url(#paint0_linear_26_15)"/>
<path d="M147.554 34.3921C142.279 28.6326 137.006 22.8732 131.731 17.1137C132.255 17.6839 132.742 18.2855 133.235 18.882C137.555 23.6008 141.875 28.3196 146.198 33.0384C158.814 46.8205 163.265 67.7893 156.238 90.7659C144.283 129.851 103.64 159.941 65.4575 157.975C50.9811 157.228 38.9479 151.974 30.2222 143.617C39.0371 152.759 51.567 158.547 66.813 159.33C104.995 161.296 145.637 131.206 157.591 92.1214C164.622 69.1447 160.173 48.1742 147.554 34.3921Z" fill="#E68805"/>
<path d="M94.2856 0.508639C132.468 2.47626 153.727 35.7528 141.771 74.8394C129.815 113.924 89.1768 144.014 50.9926 142.048C12.8119 140.081 -8.44893 106.802 3.50549 67.7175C15.4599 28.6326 56.1049 -1.45724 94.2856 0.508639Z" fill="url(#paint1_linear_26_15)"/>
<path opacity="0.7" d="M142.604 75.7632C149.718 52.4997 145.069 31.2983 132.084 17.5284C144.423 31.3123 148.735 52.087 141.772 74.8415C129.816 113.926 89.1776 144.016 50.9934 142.05C35.5025 141.251 22.81 135.292 13.9775 125.891C14.1577 126.096 14.3343 126.306 14.5197 126.509L14.8782 126.902C23.7072 136.256 36.3805 142.178 51.8224 142.974C90.0101 144.94 130.648 114.85 142.604 75.7632Z" fill="url(#paint2_linear_26_15)"/>
<path opacity="0.7" d="M86.9914 20.4335C114.419 21.8467 129.698 45.7486 121.107 73.8375C112.522 101.914 83.315 123.537 55.8872 122.124C28.4471 120.711 13.18 96.7984 21.7659 68.7217C30.3605 40.6328 59.5496 19.0221 86.9914 20.4335Z" fill="url(#paint3_linear_26_15)"/>
<path d="M88.1919 20.4335C115.618 21.8467 130.899 45.7486 122.31 73.8375C113.722 101.914 84.5156 123.537 57.0895 122.124C29.6494 120.711 14.3806 96.7984 22.9682 68.7217C31.561 40.6328 60.7519 19.0221 88.1919 20.4335Z" fill="url(#paint4_linear_26_15)"/>
<path d="M28.8854 71.6111C37.4782 43.5221 66.6672 21.9115 94.1056 23.3246C98.9363 23.5748 103.377 24.5332 107.393 26.0758C102.011 22.8192 95.5432 20.8131 88.1939 20.4335C60.7539 19.0221 31.563 40.6328 22.9702 68.7217C15.8955 91.8575 25.0218 112.151 43.8043 119.373C29.1075 110.477 22.5977 92.1671 28.8854 71.6111Z" fill="#CF4505"/>
<path d="M102.456 62.0735L89.4875 56.7373L84.1198 43.9014C83.4901 42.4007 82.3253 41.6207 80.9541 41.5735C79.5864 41.5262 78.0122 42.2101 76.5623 43.6373L64.1392 55.8523L48.4541 60.1881C44.7935 61.2095 42.8013 64.4906 44.0379 67.5007L49.3339 80.382L45.0138 95.9079C44.1953 98.8585 45.4913 100.838 47.9784 100.926C48.5433 100.945 49.1625 100.866 49.8376 100.684L65.5349 96.4326L78.5492 101.687C79.1036 101.912 79.6755 102.029 80.2387 102.05C82.7328 102.136 85.1062 100.286 85.9457 97.3369L90.3479 81.8127L102.713 69.547C105.601 66.6839 105.487 63.3293 102.456 62.0735Z" fill="url(#paint5_linear_26_15)"/>
<path opacity="0.4" d="M144.948 57.7692L44.0286 141.319C28.3034 138.792 16.0026 130.591 8.48193 118.85L131.568 16.9475C141.075 27.2316 145.997 41.5647 144.948 57.7692Z" fill="url(#paint6_linear_26_15)"/>
<path opacity="0.4" d="M94.2871 0.508858C87.9522 0.181795 81.5544 0.757216 75.2283 2.08821L6.86156 58.6859C5.58129 61.6365 4.44619 64.6447 3.50698 67.7177C1.07761 75.6617 0.040461 83.3573 0.220608 90.6069L106.754 2.40827C102.836 1.3956 98.6771 0.736228 94.2871 0.508858Z" fill="url(#paint7_linear_26_15)"/>
<path opacity="0.5" d="M119.628 120.166C109.913 129.73 100.491 135.912 98.5827 133.974C96.6745 132.037 103.002 122.713 112.718 113.147C122.436 103.584 131.859 97.3994 133.766 99.339C135.674 101.277 129.344 110.603 119.628 120.166Z" fill="url(#paint8_radial_26_15)"/>
<defs>
<linearGradient id="paint0_linear_26_15" x1="11.0437" y1="171.115" x2="179.591" y2="37.3124" gradientUnits="userSpaceOnUse">
<stop stop-color="#D13F05"/>
<stop offset="0.2926" stop-color="#F67205"/>
<stop offset="0.3667" stop-color="#F67705"/>
<stop offset="0.4526" stop-color="#F68505"/>
<stop offset="0.5441" stop-color="#F69C05"/>
<stop offset="0.5638" stop-color="#F6A205"/>
<stop offset="0.5977" stop-color="#F69005"/>
<stop offset="0.6432" stop-color="#F67F05"/>
<stop offset="0.6932" stop-color="#F67505"/>
<stop offset="0.7553" stop-color="#F67205"/>
<stop offset="1" stop-color="#D13F05"/>
</linearGradient>
<linearGradient id="paint1_linear_26_15" x1="119.748" y1="94.8333" x2="-17.7487" y2="26.085" gradientUnits="userSpaceOnUse">
<stop stop-color="#FFAF02"/>
<stop offset="1" stop-color="#F56D05"/>
</linearGradient>
<linearGradient id="paint2_linear_26_15" x1="42.6218" y1="144.545" x2="152.584" y2="32.1804" gradientUnits="userSpaceOnUse">
<stop stop-color="white" stop-opacity="0"/>
<stop offset="0.4787" stop-color="white"/>
<stop offset="1" stop-color="white" stop-opacity="0"/>
</linearGradient>
<linearGradient id="paint3_linear_26_15" x1="46.0139" y1="126.258" x2="96.0374" y2="18.0819" gradientUnits="userSpaceOnUse">
<stop stop-color="white" stop-opacity="0"/>
<stop offset="0.4787" stop-color="white"/>
<stop offset="1" stop-color="white" stop-opacity="0"/>
</linearGradient>
<linearGradient id="paint4_linear_26_15" x1="135.388" y1="52.3563" x2="24.256" y2="85.8679" gradientUnits="userSpaceOnUse">
<stop stop-color="#CF4505"/>
<stop offset="1" stop-color="#E45905"/>
</linearGradient>
<linearGradient id="paint5_linear_26_15" x1="124.321" y1="101.249" x2="3.3234" y2="40.6579" gradientUnits="userSpaceOnUse">
<stop stop-color="#FFAF02"/>
<stop offset="1" stop-color="#F56D05"/>
</linearGradient>
<linearGradient id="paint6_linear_26_15" x1="54.3058" y1="49.7738" x2="101.248" y2="104.847" gradientUnits="userSpaceOnUse">
<stop stop-color="white"/>
<stop offset="1" stop-color="white" stop-opacity="0"/>
</linearGradient>
<linearGradient id="paint7_linear_26_15" x1="31.421" y1="24.1251" x2="57.1086" y2="50.1822" gradientUnits="userSpaceOnUse">
<stop stop-color="white"/>
<stop offset="1" stop-color="white" stop-opacity="0"/>
</linearGradient>
<radialGradient id="paint8_radial_26_15" cx="0" cy="0" r="1" gradientUnits="userSpaceOnUse" gradientTransform="translate(116.173 116.657) rotate(45.4677) scale(4.92433 24.6886)">
<stop stop-color="white"/>
<stop offset="1" stop-color="white" stop-opacity="0"/>
</radialGradient>
</defs>
</svg>
